<?xml version="1.0" encoding="UTF-8"?>
<svg width="36px" height="33px" viewBox="0 0 36 33" version="1.1" xmlns="http://www.w3.org/2000/svg"
    xmlns:xlink="http://www.w3.org/1999/xlink">
    <title>core / Terminal / Dark</title>
    <g id="Page-1" stroke="none" stroke-width="1" fill="none" fill-rule="evenodd">
        <g id="Screen" transform="translate(-82.000000, -287.000000)" fill="#222222">
            <g id="Group" transform="translate(82.222222, 287.333333)">
                <path
                    d="M6.13963636,5.18383838 C6.56808081,4.66666667 7.33236364,4.6020202 7.84678788,5.02222222 L15.1195152,11.0828283 C15.3958788,11.3252525 15.5555556,11.6646465 15.5555556,12.020202 C15.5555556,12.3757576 15.3958788,12.7151515 15.1195152,12.9575758 L7.84678788,19.0181818 C7.33236364,19.4383838 6.56808081,19.3737374 6.13963636,18.8565657 C5.7110303,18.3393939 5.78052525,17.579798 6.29478788,17.1434343 L12.450101,12.020202 L6.29478788,6.8969697 C5.78052525,6.46060606 5.7110303,5.7010101 6.13963636,5.18383838 Z"
                    id="Path" fill-rule="nonzero"></path>
                <path
                    d="M15.1515152,19.2929293 C14.482101,19.2929293 13.9393939,19.8424242 13.9393939,20.5050505 C13.9393939,21.1676768 14.482101,21.7171717 15.1515152,21.7171717 L24.040404,21.7171717 C24.7098182,21.7171717 25.2525253,21.1676768 25.2525253,20.5050505 C25.2525253,19.8424242 24.7098182,19.2929293 24.040404,19.2929293 L15.1515152,19.2929293 Z"
                    id="Path" fill-rule="nonzero"></path>
                <path
                    d="M0,4.44444444 C0,1.98787879 1.98981818,0 4.44444444,0 L31.1111111,0 C33.5657374,0 35.5555556,1.98787879 35.5555556,4.44444444 L35.5555556,27.8787879 C35.5555556,30.3353535 33.5657374,32.3232323 31.1111111,32.3232323 L4.44444444,32.3232323 C1.98981818,32.3232323 0,30.3353535 0,27.8787879 L0,4.44444444 Z M4.44444444,2.42424242 C3.32864646,2.42424242 2.42424242,3.32929293 2.42424242,4.44444444 L2.42424242,27.8787879 C2.42424242,28.9939394 3.32864646,29.8989899 4.44444444,29.8989899 L31.1111111,29.8989899 C32.2269091,29.8989899 33.1313131,28.9939394 33.1313131,27.8787879 L33.1313131,4.44444444 C33.1313131,3.32929293 32.2269091,2.42424242 31.1111111,2.42424242 L4.44444444,2.42424242 Z"
                    id="Shape"></path>
            </g>
        </g>
    </g>
</svg>